<svg width="78" height="82" viewBox="0 0 78 82" fill="none" xmlns="http://www.w3.org/2000/svg">
<path fill-rule="evenodd" clip-rule="evenodd" d="M39.1772 0.443848C17.8815 0.443848 0.666016 18.9869 0.666016 41.9272C0.666016 60.2645 11.6966 75.7867 26.9989 81.2805C28.9121 81.6935 29.6129 80.3879 29.6129 79.2897C29.6129 78.328 29.5498 75.0315 29.5498 71.5969C18.8369 74.0698 16.6061 66.6518 16.6061 66.6518C14.8844 61.8441 12.3335 60.6084 12.3335 60.6084C8.8272 58.0672 12.5889 58.0672 12.5889 58.0672C16.4784 58.342 18.5193 62.3253 18.5193 62.3253C21.9617 68.6435 27.5089 66.8583 29.7406 65.7592C30.0591 63.0805 31.0799 61.2262 32.1638 60.1963C23.6195 59.2346 14.6298 55.6633 14.6298 39.729C14.6298 35.196 16.1591 31.4874 18.5823 28.6031C18.2 27.5732 16.8607 23.3142 18.9654 17.6139C18.9654 17.6139 22.2171 16.5148 29.549 21.872C32.6881 20.964 35.9253 20.502 39.1772 20.4981C42.4289 20.4981 45.7437 20.9794 48.8047 21.872C56.1373 16.5148 59.3891 17.6139 59.3891 17.6139C61.4938 23.3142 60.1537 27.5732 59.7714 28.6031C62.2584 31.4874 63.7247 35.196 63.7247 39.729C63.7247 55.6633 54.735 59.1654 46.1268 60.1963C47.53 61.501 48.7408 63.9731 48.7408 67.8882C48.7408 73.4512 48.6777 77.9158 48.6777 79.2888C48.6777 80.3879 49.3793 81.6935 51.2917 81.2814C66.594 75.7859 77.6246 60.2645 77.6246 41.9272C77.6877 18.9869 60.4091 0.443848 39.1772 0.443848Z" fill="#F5FDFF"/>
</svg>
