<svg width="67" height="70" viewBox="0 0 67 70" fill="none" xmlns="http://www.w3.org/2000/svg">
<path d="M16.0866 22.4766H2.93008C2.34618 22.4766 1.87305 22.9827 1.87305 23.6068V68.7991C1.87305 69.4235 2.34618 69.9293 2.93008 69.9293H16.0866C16.6705 69.9293 17.1436 69.4235 17.1436 68.7991V23.6068C17.1436 22.9827 16.6705 22.4766 16.0866 22.4766Z" fill="#F5FDFF"/>
<path d="M9.51369 0.0102539C4.72658 0.0102539 0.832031 4.1699 0.832031 9.28277C0.832031 14.3979 4.72658 18.5591 9.51369 18.5591C14.297 18.5591 18.1884 14.3977 18.1884 9.28277C18.1886 4.1699 14.297 0.0102539 9.51369 0.0102539Z" fill="#F5FDFF"/>
<path d="M49.5506 21.3535C44.2665 21.3535 40.3603 23.7823 37.9911 26.5421V23.6069C37.9911 22.9828 37.518 22.4767 36.9341 22.4767H24.3344C23.7505 22.4767 23.2773 22.9828 23.2773 23.6069V68.7993C23.2773 69.4236 23.7505 69.9295 24.3344 69.9295H37.4621C38.0461 69.9295 38.5192 69.4236 38.5192 68.7993V46.4396C38.5192 38.9049 40.4333 35.9695 45.3455 35.9695C50.6954 35.9695 51.1206 40.6752 51.1206 46.8272V68.7995C51.1206 69.4239 51.5937 69.9297 52.1776 69.9297H65.3102C65.8941 69.9297 66.3673 69.4239 66.3673 68.7995V44.0107C66.3673 32.8069 64.3692 21.3535 49.5506 21.3535Z" fill="#F5FDFF"/>
</svg>
