<svg width="64" height="70" viewBox="0 0 64 70" fill="none" xmlns="http://www.w3.org/2000/svg">
<path d="M63.2877 32.039C63.1885 34.74 62.7921 37.3791 62.0982 39.9562C61.4292 42.5085 60.4132 44.813 59.0503 46.8698C57.6874 48.9265 55.9528 50.562 53.8465 51.7762C51.765 52.9904 49.2498 53.5975 46.301 53.5975C43.154 53.5975 40.5769 52.5692 38.5697 50.5124C36.5625 48.4557 35.6457 45.6679 35.8191 42.1492L37.7148 20.1075H46.6356L44.7399 42.1492C44.616 42.9917 44.616 43.6979 44.7399 44.2679C44.8886 44.813 45.124 45.2591 45.4461 45.606C45.7931 45.9281 46.1895 46.1635 46.6356 46.3122C47.0816 46.4361 47.5524 46.4981 48.048 46.4981C49.4109 46.4981 50.6251 45.891 51.6907 44.6768C52.7562 43.4378 53.6111 41.7651 54.2554 39.6588C54.9244 37.5278 55.2961 35.1365 55.3705 32.485C55.6183 27.5538 54.9988 23.205 53.512 19.4384C52.0252 15.6719 49.6339 12.7355 46.3382 10.6292C43.0673 8.49811 38.8423 7.43257 33.6633 7.43257C28.6825 7.43257 24.3956 8.70874 20.8025 11.2611C17.2342 13.7886 14.4465 17.2082 12.4393 21.5199C10.4569 25.8069 9.32944 30.6142 9.05686 35.9418C8.85862 40.3774 9.20554 44.2307 10.0976 47.5017C11.0145 50.7478 12.4269 53.4364 14.335 55.5675C16.243 57.6986 18.6219 59.2845 21.4716 60.3253C24.3461 61.366 27.6294 61.8864 31.3216 61.8864C33.4774 61.8864 35.6705 61.651 37.9007 61.1802C40.1556 60.7341 42.0637 60.2014 43.6248 59.5819L45.0744 66.3468C43.3398 67.4619 41.1592 68.292 38.5325 68.8372C35.9307 69.3823 33.4774 69.6549 31.1729 69.6549C24.4576 69.6549 18.7582 68.4035 14.0748 65.9007C9.39139 63.4227 5.87265 59.681 3.51856 54.6754C1.18925 49.6947 0.16088 43.4501 0.433459 35.9418C0.656478 30.8867 1.58572 26.2033 3.2212 21.8916C4.85667 17.5799 7.11164 13.8382 9.98611 10.6663C12.8854 7.46974 16.3422 4.99175 20.3565 3.23238C24.3708 1.44823 28.856 0.556152 33.812 0.556152C40.3291 0.556152 45.8302 1.89427 50.3154 4.5705C54.8005 7.22194 58.1458 10.9141 60.3512 15.6471C62.5814 20.3801 63.5602 25.844 63.2877 32.039ZM26.4895 36.4994C26.3408 38.5561 26.4028 40.2783 26.6754 41.666C26.9479 43.0289 27.4312 44.0573 28.125 44.7511C28.8436 45.4201 29.7481 45.7547 30.8384 45.7547C31.334 45.7547 31.9163 45.5936 32.5854 45.2715C33.2792 44.9246 33.973 44.2307 34.6669 43.19C35.3855 42.1492 35.9926 40.5881 36.4882 38.5066L40.168 43.1528C39.0281 46.5724 37.4051 49.1371 35.2988 50.8469C33.2173 52.5568 30.6773 53.4117 27.679 53.4117C25.2753 53.4117 23.1814 52.7178 21.3972 51.3302C19.6131 49.9425 18.2874 47.9849 17.4201 45.4573C16.5528 42.905 16.2802 39.919 16.6023 36.4994C17.1227 32.3364 18.213 28.7309 19.8733 25.683C21.5335 22.6103 23.6274 20.2314 26.155 18.5464C28.7073 16.8613 31.557 16.0188 34.7041 16.0188C37.7024 16.0188 40.0441 16.4401 41.7292 17.2826C43.4142 18.1251 45.0497 19.0667 46.6356 20.1075L42.3239 26.5379C41.63 25.9184 40.7008 25.3113 39.5361 24.7165C38.3963 24.0971 37.0458 23.7873 35.4846 23.7873C33.527 23.7873 31.9411 24.2829 30.7269 25.2741C29.5127 26.2653 28.571 27.7025 27.902 29.5858C27.2577 31.4691 26.7869 33.7736 26.4895 36.4994Z" fill="#F5FDFF"/>
</svg>
