<?xml version="1.0" standalone="no"?>
<!DOCTYPE svg PUBLIC "-//W3C//DTD SVG 20010904//EN"
 "http://www.w3.org/TR/2001/REC-SVG-20010904/DTD/svg10.dtd">
<svg version="1.0" xmlns="http://www.w3.org/2000/svg"
 width="2048.000000pt" height="2048.000000pt" viewBox="0 0 2048.000000 2048.000000"
 preserveAspectRatio="xMidYMid meet">
<metadata>
Created by potrace 1.14, written by Peter Selinger 2001-2017
</metadata>
<g transform="translate(0.000000,2048.000000) scale(0.100000,-0.100000)"
fill="#000000" stroke="none">
<path d="M11565 19850 c-99 -15 -131 -20 -185 -32 -65 -14 -69 -15 -72 -17 -2
-2 -12 -4 -24 -6 -11 -3 -61 -18 -110 -36 -49 -17 -99 -33 -111 -36 -13 -3
-23 -9 -23 -14 0 -5 -7 -9 -15 -9 -19 0 -190 -89 -265 -138 -68 -44 -154 -107
-200 -147 -52 -45 -212 -207 -237 -240 -13 -17 -36 -48 -53 -70 -16 -22 -34
-45 -39 -52 -6 -6 -25 -35 -43 -65 -18 -29 -39 -62 -45 -73 -53 -85 -168 -359
-188 -448 -2 -12 -9 -40 -14 -62 -14 -55 -21 -93 -27 -140 -3 -22 -7 -51 -11
-65 -10 -45 -11 -374 -2 -440 10 -67 12 -83 24 -160 4 -25 12 -53 17 -63 5
-10 7 -21 4 -24 -3 -3 1 -22 8 -42 7 -20 19 -54 26 -76 34 -111 129 -327 149
-339 6 -4 9 -11 7 -15 -3 -4 4 -17 14 -29 11 -12 20 -26 20 -32 0 -9 58 -95
102 -151 62 -79 95 -116 173 -194 154 -153 129 -135 590 -423 22 -14 42 -24
44 -23 2 2 7 -1 10 -6 9 -13 219 -143 231 -143 5 0 10 -3 10 -8 0 -7 30 -25
63 -38 9 -3 17 -10 17 -15 0 -5 7 -9 15 -9 8 0 15 -4 15 -10 0 -5 6 -10 13
-10 6 0 38 -18 70 -40 31 -22 60 -40 63 -40 3 0 29 -15 57 -33 80 -52 110 -70
138 -87 43 -25 282 -172 308 -189 44 -29 96 -61 116 -71 11 -6 47 -28 80 -50
33 -21 74 -47 92 -56 18 -8 37 -22 44 -30 6 -8 15 -14 20 -14 4 0 76 -43 160
-95 83 -52 153 -95 155 -95 1 0 23 -13 47 -30 25 -16 50 -30 56 -30 6 0 11 -4
11 -10 0 -5 7 -10 15 -10 8 0 15 -4 15 -9 0 -5 8 -12 18 -15 22 -9 63 -32 135
-79 31 -20 62 -37 67 -37 6 0 10 -4 10 -8 0 -5 15 -16 33 -25 17 -10 46 -26
62 -37 17 -11 38 -23 48 -26 9 -4 17 -10 17 -15 0 -5 5 -9 11 -9 6 0 30 -14
55 -30 24 -17 44 -27 44 -23 0 4 5 0 11 -9 5 -10 14 -18 19 -18 5 0 65 -34
132 -76 68 -42 152 -95 188 -117 36 -22 89 -55 117 -74 29 -18 55 -33 59 -33
3 0 20 -10 37 -23 32 -22 41 -28 112 -70 22 -13 78 -48 125 -77 130 -81 297
-183 328 -200 15 -8 28 -18 30 -22 2 -5 10 -8 18 -8 8 0 14 -4 14 -9 0 -5 8
-11 18 -14 18 -6 74 -38 82 -48 4 -4 191 -119 265 -162 11 -7 22 -14 25 -17 3
-3 19 -13 35 -23 75 -44 139 -83 163 -99 15 -10 41 -25 57 -34 17 -9 32 -20
35 -23 4 -6 48 -33 165 -104 11 -7 45 -29 77 -49 31 -21 61 -38 67 -38 5 0 11
-3 13 -8 2 -4 41 -32 88 -61 111 -70 534 -352 540 -360 3 -3 12 -10 22 -16 62
-38 107 -72 108 -80 0 -6 -15 -19 -32 -30 -18 -10 -35 -21 -38 -24 -6 -7 -82
-59 -110 -76 -9 -5 -71 -46 -136 -90 -66 -44 -126 -84 -136 -90 -9 -5 -35 -21
-57 -34 -23 -14 -41 -28 -41 -33 0 -4 -5 -8 -11 -8 -9 0 -115 -65 -181 -111
-15 -10 -29 -19 -32 -19 -4 0 -159 -96 -271 -168 -22 -14 -42 -24 -44 -23 -2
2 -7 -1 -10 -6 -8 -12 -109 -73 -121 -73 -6 0 -10 -4 -10 -10 0 -5 -5 -10 -10
-10 -6 0 -23 -8 -38 -19 -15 -10 -49 -32 -77 -49 -27 -17 -56 -36 -62 -42 -7
-6 -13 -9 -13 -6 0 3 -54 -29 -121 -70 -66 -41 -123 -74 -125 -74 -3 0 -10 -5
-17 -10 -13 -12 -225 -142 -248 -153 -8 -4 -27 -16 -44 -27 -16 -11 -38 -23
-47 -26 -10 -4 -18 -10 -18 -15 0 -5 -4 -9 -9 -9 -5 0 -71 -39 -147 -86 -77
-47 -148 -91 -159 -97 -11 -7 -43 -27 -71 -44 -28 -18 -56 -33 -63 -33 -6 0
-11 -4 -11 -10 0 -5 -4 -10 -10 -10 -8 0 -116 -65 -145 -87 -5 -5 -21 -14 -35
-21 -36 -18 -94 -53 -100 -61 -3 -3 -18 -13 -35 -21 -16 -8 -32 -18 -35 -21
-3 -3 -38 -26 -79 -50 -93 -55 -161 -97 -291 -176 -55 -35 -105 -63 -110 -63
-4 0 -10 -4 -12 -8 -1 -4 -61 -43 -133 -87 -71 -43 -152 -93 -180 -110 -87
-55 -100 -62 -107 -61 -3 1 -17 -8 -30 -20 -13 -12 -30 -24 -38 -28 -17 -8
-37 -20 -97 -59 -24 -15 -45 -27 -48 -27 -3 0 -11 -5 -18 -10 -7 -6 -86 -56
-177 -112 -297 -182 -504 -310 -540 -333 -91 -58 -436 -271 -450 -278 -8 -4
-27 -15 -42 -25 -16 -9 -121 -75 -235 -146 -278 -173 -389 -261 -532 -421 -57
-64 -151 -191 -151 -204 0 -5 -4 -11 -9 -13 -15 -5 -104 -166 -148 -268 -73
-166 -114 -310 -148 -515 -11 -62 -14 -394 -5 -455 5 -30 11 -71 13 -90 8 -61
38 -194 48 -212 5 -10 7 -18 5 -18 -3 0 2 -19 10 -42 9 -24 17 -47 18 -53 12
-45 82 -202 125 -280 45 -83 140 -229 170 -262 9 -10 27 -31 39 -48 40 -52
179 -190 250 -248 84 -69 242 -177 258 -177 7 0 14 -4 16 -9 4 -11 171 -91
263 -126 110 -42 247 -78 375 -99 122 -20 367 -28 470 -15 133 17 185 25 185
29 0 1 9 3 20 5 69 10 246 63 340 102 107 44 178 85 615 353 173 106 371 227
439 268 68 41 147 90 175 109 28 18 56 33 62 33 7 0 14 4 16 8 3 9 143 94 171
105 9 3 17 11 17 17 0 5 9 10 20 10 11 0 20 4 20 9 0 5 12 15 28 22 50 26 127
73 130 81 2 4 7 8 12 8 11 0 113 62 121 73 3 5 10 9 15 9 5 1 18 6 29 13 81
51 368 225 372 225 2 0 34 19 71 43 37 24 114 72 172 106 58 34 179 108 270
163 91 55 180 109 198 119 18 11 98 60 179 109 80 50 150 90 154 90 5 0 9 5 9
11 0 5 4 8 9 5 5 -4 11 -3 13 2 1 4 62 44 133 88 126 79 274 173 305 194 8 5
51 33 95 61 44 29 83 57 87 63 4 6 8 7 8 3 0 -4 24 10 53 31 28 21 88 62 132
92 44 29 91 62 105 72 30 23 119 87 150 108 13 8 32 23 44 32 11 10 62 47 111
84 83 62 106 81 176 139 13 11 51 42 84 68 33 27 67 56 77 65 9 10 42 40 74
67 93 81 283 275 359 366 92 111 115 144 244 349 8 14 16 27 16 30 1 3 15 34
32 70 78 162 118 300 139 475 5 44 5 4676 0 4701 -2 12 -7 39 -10 60 -10 66
-28 148 -36 169 -4 11 -18 49 -30 85 -12 36 -33 90 -48 120 -14 30 -26 57 -26
60 -3 19 -97 174 -161 265 -170 243 -444 521 -770 784 -11 9 -41 32 -65 52
-63 51 -321 243 -415 309 -43 30 -98 70 -122 88 -24 17 -46 32 -50 32 -3 0
-15 7 -25 17 -10 9 -27 21 -37 27 -11 6 -53 35 -95 64 -41 28 -80 52 -86 52
-5 0 -10 4 -10 8 0 5 -12 15 -27 22 -16 8 -37 21 -48 30 -18 15 -158 106 -391
253 -42 26 -80 47 -85 47 -5 0 -9 3 -9 8 0 4 -21 19 -47 32 -26 14 -54 31 -61
38 -7 6 -17 12 -22 12 -5 0 -15 6 -22 13 -7 7 -40 28 -73 47 -33 19 -65 39
-72 45 -6 7 -25 18 -42 25 -17 7 -31 16 -31 21 0 5 -4 9 -9 9 -5 0 -69 37
-143 83 -181 112 -272 168 -321 196 -23 13 -43 28 -45 32 -2 5 -8 9 -13 9 -8
0 -199 115 -326 196 -29 19 -55 34 -57 34 -3 0 -32 18 -65 40 -33 22 -64 40
-70 40 -5 0 -11 3 -13 8 -4 9 -107 72 -119 72 -5 0 -9 5 -9 10 0 6 -4 10 -10
10 -5 0 -58 31 -118 68 -60 38 -115 72 -123 75 -8 4 -26 15 -41 25 -72 47
-182 112 -189 112 -5 0 -9 4 -9 9 0 5 -15 15 -32 22 -18 7 -41 20 -50 29 -10
9 -34 25 -55 37 -21 11 -85 49 -141 84 -57 35 -117 72 -133 82 -96 57 -282
170 -358 218 -34 21 -66 39 -70 39 -5 0 -16 9 -26 20 -10 11 -21 17 -25 15 -4
-3 -13 2 -20 10 -7 8 -19 15 -26 15 -8 0 -14 3 -14 8 0 4 -17 15 -37 25 -21 9
-45 21 -53 27 -28 18 -252 108 -275 110 -3 0 -10 2 -17 4 -7 3 -26 8 -43 12
-16 4 -32 8 -35 9 -18 5 -122 26 -154 31 -21 3 -48 8 -60 11 -34 9 -407 11
-461 3z"/>
<path d="M8588 14545 c-2 -2 -37 -6 -78 -9 -68 -6 -149 -18 -207 -31 -13 -3
-32 -7 -42 -9 -58 -13 -149 -41 -173 -53 -15 -7 -29 -13 -30 -13 -4 1 -36 -9
-63 -20 -82 -33 -157 -72 -268 -138 -71 -42 -144 -86 -163 -97 -19 -11 -68
-41 -110 -67 -42 -27 -80 -48 -85 -48 -5 0 -9 -3 -9 -7 0 -5 -10 -13 -23 -19
-12 -6 -94 -55 -182 -109 -88 -54 -187 -114 -220 -133 -33 -20 -66 -42 -73
-49 -7 -7 -17 -13 -22 -13 -5 0 -28 -13 -52 -29 -24 -16 -59 -38 -78 -49 -19
-11 -96 -57 -170 -102 -74 -46 -151 -92 -170 -104 -19 -11 -37 -23 -40 -27 -3
-3 -9 -8 -15 -10 -5 -2 -59 -33 -118 -69 -59 -36 -120 -72 -135 -81 -15 -9
-76 -47 -137 -84 -60 -37 -126 -77 -145 -88 -19 -10 -54 -32 -78 -48 -24 -16
-45 -29 -48 -29 -3 0 -30 -16 -60 -35 -30 -19 -59 -35 -64 -35 -6 0 -10 -4
-10 -10 0 -5 -6 -10 -14 -10 -8 0 -16 -3 -18 -7 -1 -5 -16 -15 -31 -23 -15 -8
-143 -85 -283 -170 -141 -85 -271 -164 -290 -175 -18 -11 -59 -36 -91 -55 -32
-19 -62 -37 -68 -39 -5 -2 -12 -7 -15 -11 -3 -4 -39 -26 -80 -51 -41 -24 -79
-47 -85 -52 -5 -4 -50 -33 -100 -64 -49 -31 -126 -79 -170 -108 -44 -28 -122
-78 -174 -111 -51 -32 -105 -69 -119 -81 -13 -13 -31 -23 -38 -23 -8 0 -14 -5
-14 -10 0 -6 -8 -14 -17 -17 -10 -4 -28 -14 -39 -22 -12 -9 -32 -23 -44 -31
-12 -8 -51 -35 -85 -60 -35 -25 -73 -52 -85 -60 -31 -21 -268 -199 -315 -235
-299 -236 -551 -474 -710 -675 -33 -41 -62 -77 -65 -80 -3 -3 -32 -45 -65 -95
-71 -107 -166 -292 -189 -366 -10 -30 -21 -61 -25 -69 -5 -9 -11 -29 -15 -45
-3 -17 -9 -40 -11 -52 -3 -13 -7 -33 -10 -45 -10 -46 -16 -84 -20 -133 -6 -62
-6 -4635 -1 -4690 5 -51 13 -98 27 -156 6 -26 12 -53 13 -60 3 -16 3 -16 46
-134 52 -146 197 -404 270 -483 11 -11 20 -24 20 -27 0 -6 25 -36 125 -148
121 -138 216 -231 415 -407 76 -67 282 -232 410 -328 74 -55 144 -108 155
-116 11 -9 43 -31 70 -50 28 -19 84 -58 125 -87 117 -82 441 -299 446 -299 3
0 10 -5 17 -10 16 -14 187 -124 218 -140 13 -7 26 -16 29 -19 3 -3 14 -11 25
-18 101 -60 161 -99 163 -105 2 -5 8 -8 13 -8 6 0 37 -18 69 -40 32 -22 61
-40 64 -40 9 0 271 -164 274 -172 2 -4 8 -8 13 -8 8 0 125 -70 259 -155 76
-48 141 -85 149 -85 5 0 11 -4 13 -9 2 -4 39 -30 83 -56 44 -26 96 -57 115
-70 19 -12 76 -47 125 -77 50 -30 145 -90 213 -132 67 -42 125 -76 128 -76 3
0 24 -13 47 -28 40 -28 88 -57 327 -203 134 -82 139 -85 178 -105 17 -10 32
-21 32 -25 0 -4 8 -9 18 -13 9 -3 26 -11 36 -18 43 -28 232 -145 246 -151 8
-4 27 -15 42 -25 23 -14 339 -208 456 -279 102 -62 206 -115 287 -148 126 -51
266 -91 385 -109 19 -3 46 -8 60 -11 67 -13 317 -19 416 -11 304 27 614 134
874 301 67 43 95 64 189 140 55 44 201 194 253 260 67 85 145 201 184 275 16
30 33 58 39 62 5 4 7 8 3 8 -4 0 7 28 24 62 36 73 121 326 113 338 -3 5 -1 11
4 14 4 3 12 27 15 53 4 27 9 57 11 68 27 140 27 481 0 615 -30 150 -29 148
-60 250 -9 30 -20 64 -25 75 -5 11 -23 56 -40 100 -29 72 -93 203 -113 230 -4
5 -32 48 -63 95 -31 47 -60 87 -63 90 -3 3 -20 23 -36 45 -43 58 -210 224
-280 278 -33 26 -65 52 -72 57 -7 6 -16 10 -20 10 -4 0 -26 14 -47 30 -22 17
-45 30 -52 30 -7 0 -14 4 -16 8 -1 4 -61 44 -131 87 -70 44 -138 87 -152 95
-13 8 -49 31 -81 50 -80 48 -100 61 -287 177 -91 57 -169 103 -175 103 -6 0
-12 4 -14 9 -1 5 -17 17 -35 27 -18 11 -87 53 -153 94 -67 41 -129 80 -138 85
-34 19 -178 108 -227 140 -27 18 -53 33 -58 34 -4 0 -28 16 -55 34 -26 18
-101 65 -167 106 -227 137 -270 164 -276 174 -3 5 -9 7 -12 5 -4 -1 -16 5 -27
15 -11 9 -23 17 -26 17 -5 0 -485 293 -564 345 -32 21 -258 160 -305 188 -11
7 -38 23 -60 37 -22 14 -49 30 -60 37 -24 14 -283 173 -380 234 -38 23 -107
66 -153 93 -403 247 -488 300 -493 308 -3 5 -10 9 -15 9 -5 -1 -17 6 -27 14
-9 8 -21 15 -26 15 -5 0 -16 6 -23 13 -7 6 -29 21 -48 31 -19 11 -61 37 -93
58 -32 21 -60 38 -63 38 -2 0 -59 35 -127 78 -67 43 -129 81 -137 85 -8 4 -55
34 -105 67 -49 32 -125 81 -167 107 -43 26 -78 51 -78 55 0 5 -5 8 -10 8 -12
0 -361 231 -517 342 l-93 65 207 139 c114 77 219 145 233 152 13 7 27 16 30
20 9 12 89 62 100 62 5 0 10 3 10 8 0 4 17 16 38 27 20 11 39 23 42 26 3 4 19
15 37 25 18 11 79 48 135 83 305 190 356 221 366 221 6 0 12 4 14 8 2 5 91 61
198 127 107 65 234 142 282 171 48 30 90 54 93 54 9 0 69 44 73 53 2 4 8 7 13
7 5 0 28 12 52 27 23 15 53 33 67 40 14 7 68 39 120 72 52 33 131 81 175 108
44 26 98 59 120 73 22 14 49 30 60 37 96 56 361 220 369 228 7 6 18 11 26 13
8 2 17 8 18 13 2 5 10 9 18 9 8 0 14 5 14 10 0 6 4 10 9 10 10 0 112 60 121
71 3 3 20 12 38 20 17 8 32 17 32 20 0 4 15 14 33 23 17 9 75 44 127 77 52 32
103 62 113 65 9 4 17 10 17 15 0 5 4 9 9 9 11 0 161 90 179 108 7 6 20 12 28
12 8 0 14 3 14 8 0 4 9 12 20 17 11 6 75 44 142 86 68 42 188 115 268 164 80
48 148 93 152 99 4 6 8 7 8 3 0 -4 15 3 33 17 19 15 38 26 42 26 4 0 22 10 39
23 17 13 57 39 90 58 32 19 70 42 85 52 14 9 34 20 44 23 9 4 17 10 17 15 0 5
4 9 9 9 5 0 52 27 104 60 53 33 100 60 106 60 5 0 11 4 13 8 2 4 44 32 93 62
108 66 156 96 172 110 7 5 14 10 17 10 5 0 200 119 246 150 8 6 30 18 48 27
17 9 32 20 32 25 0 4 5 8 10 8 20 0 336 210 394 262 115 103 189 182 269 288
32 41 62 80 67 87 6 7 10 15 10 18 0 4 14 26 30 50 17 24 30 47 30 50 0 4 8
19 18 33 10 15 32 59 49 97 17 39 40 90 51 115 11 25 24 59 28 75 4 17 9 35
13 40 3 6 6 15 7 20 1 6 10 37 19 70 17 63 22 85 30 125 3 14 7 36 10 50 20
94 28 415 14 520 -5 36 -11 82 -14 103 -8 64 -42 197 -74 292 -17 50 -33 95
-35 100 -16 48 -76 171 -115 235 -11 19 -24 42 -28 50 -5 12 -35 56 -105 155
-25 35 -171 198 -213 236 -250 232 -551 394 -860 464 -160 37 -247 47 -422 50
-68 1 -124 1 -125 0z"/>
</g>
</svg>
